<svg width="250" height="250" viewBox="0 0 250 250" fill="none" xmlns="http://www.w3.org/2000/svg">
<rect width="250" height="250" fill="#092444"/>
<mask id="mask0_123_22" style="mask-type:luminance" maskUnits="userSpaceOnUse" x="58" y="27" width="140" height="107">
<path d="M198 27H58V133.431H198V27Z" fill="white"/>
</mask>
<g mask="url(#mask0_123_22)">
<path d="M58 60.4144L126.066 27L195.68 60.105L126.376 97.8508L58 60.4144Z" fill="white"/>
<path d="M193.823 62.4254C193.823 61.3147 192.923 60.4143 191.812 60.4143C190.701 60.4143 189.801 61.3147 189.801 62.4254V85.9392C189.801 87.0499 190.701 87.9503 191.812 87.9503C192.923 87.9503 193.823 87.0499 193.823 85.9392V62.4254Z" fill="white"/>
<path d="M191.889 98.9337C195.264 98.9337 198 96.198 198 92.8233C198 89.4486 195.264 86.7128 191.889 86.7128C188.515 86.7128 185.779 89.4486 185.779 92.8233C185.779 96.198 188.515 98.9337 191.889 98.9337Z" fill="white"/>
<path d="M188.254 104.039C189.326 104.842 190.628 105.276 191.967 105.276C193.305 105.276 194.608 104.842 195.68 104.039C195.886 113.838 196.092 123.635 196.298 133.431H187.016C187.429 123.634 187.842 113.836 188.254 104.039Z" fill="white"/>
<path d="M88.3204 84.547L125.636 104.982L163.503 84.547V106.204C161.807 108.299 148.575 124.078 126.066 124.149C103.372 124.221 89.9912 108.268 88.3204 106.204V84.547Z" fill="white"/>
<path d="M132.324 81.6953L119.388 83.3166L118.926 85.464L121.471 85.926C123.126 86.3238 123.456 86.9184 123.097 88.5739L118.926 108.153C117.835 113.214 119.525 115.597 123.49 115.597C126.57 115.597 130.138 114.176 131.759 112.221L132.255 109.873C131.13 110.865 129.475 111.263 128.384 111.263C126.831 111.263 126.271 110.172 126.664 108.252L132.324 81.6953ZM132.713 69.91C132.713 71.4075 132.118 72.8438 131.059 73.9028C130 74.9617 128.564 75.5566 127.066 75.5566C125.569 75.5566 124.133 74.9617 123.074 73.9028C122.015 72.8438 121.42 71.4075 121.42 69.91C121.42 68.4123 122.015 66.9761 123.074 65.9172C124.133 64.8582 125.569 64.2633 127.066 64.2633C128.564 64.2633 130 64.8582 131.059 65.9172C132.118 66.9761 132.713 68.4123 132.713 69.91Z" fill="#092444"/>
</g>
<g clip-path="url(#clip0_123_22)">
<path d="M129 203.5C124.359 203.5 119.908 201.656 116.626 198.374C113.344 195.092 111.5 190.641 111.5 186C111.5 181.359 113.344 176.908 116.626 173.626C119.908 170.344 124.359 168.5 129 168.5C133.641 168.5 138.092 170.344 141.374 173.626C144.656 176.908 146.5 181.359 146.5 186C146.5 190.641 144.656 195.092 141.374 198.374C138.092 201.656 133.641 203.5 129 203.5ZM129 206C134.304 206 139.391 203.893 143.142 200.142C146.893 196.391 149 191.304 149 186C149 180.696 146.893 175.609 143.142 171.858C139.391 168.107 134.304 166 129 166C123.696 166 118.609 168.107 114.858 171.858C111.107 175.609 109 180.696 109 186C109 191.304 111.107 196.391 114.858 200.142C118.609 203.893 123.696 206 129 206Z" fill="white"/>
<path d="M131.325 182.47L125.6 183.188L125.395 184.138L126.52 184.345C127.255 184.52 127.4 184.785 127.24 185.518L125.395 194.187C124.91 196.43 125.658 197.485 127.415 197.485C128.778 197.485 130.36 196.855 131.078 195.99L131.298 194.95C130.798 195.39 130.068 195.565 129.583 195.565C128.895 195.565 128.645 195.083 128.823 194.233L131.325 182.47ZM131.5 177.25C131.5 177.913 131.237 178.549 130.768 179.018C130.299 179.487 129.663 179.75 129 179.75C128.337 179.75 127.701 179.487 127.232 179.018C126.763 178.549 126.5 177.913 126.5 177.25C126.5 176.587 126.763 175.951 127.232 175.482C127.701 175.013 128.337 174.75 129 174.75C129.663 174.75 130.299 175.013 130.768 175.482C131.237 175.951 131.5 176.587 131.5 177.25Z" fill="white"/>
</g>
<path d="M43.76 201.48C39.7867 201.48 36.68 200.373 34.44 198.16C32.2 195.947 31.08 192.787 31.08 188.68V173H37.56V188.44C37.56 191.107 38.1067 193.027 39.2 194.2C40.2933 195.373 41.8267 195.96 43.8 195.96C45.7733 195.96 47.3067 195.373 48.4 194.2C49.4933 193.027 50.04 191.107 50.04 188.44V173H56.44V188.68C56.44 192.787 55.32 195.947 53.08 198.16C50.84 200.373 47.7333 201.48 43.76 201.48ZM62.8434 201V173H68.2034L84.7234 193.16H82.1234V173H88.5234V201H83.2034L66.6434 180.84H69.2434V201H62.8434ZM95.1481 201V173H101.628V201H95.1481ZM153.586 201V173H158.946L175.466 193.16H172.866V173H179.266V201H173.946L157.386 180.84H159.986V201H153.586ZM191.89 185.6H205.33V190.8H191.89V185.6ZM192.37 201H185.89V173H207.05V178.2H192.37V201ZM224.764 201.48C222.55 201.48 220.497 201.12 218.604 200.4C216.737 199.68 215.11 198.667 213.724 197.36C212.364 196.053 211.297 194.52 210.524 192.76C209.777 191 209.404 189.08 209.404 187C209.404 184.92 209.777 183 210.524 181.24C211.297 179.48 212.377 177.947 213.764 176.64C215.15 175.333 216.777 174.32 218.644 173.6C220.51 172.88 222.537 172.52 224.724 172.52C226.937 172.52 228.964 172.88 230.804 173.6C232.67 174.32 234.284 175.333 235.644 176.64C237.03 177.947 238.11 179.48 238.884 181.24C239.657 182.973 240.044 184.893 240.044 187C240.044 189.08 239.657 191.013 238.884 192.8C238.11 194.56 237.03 196.093 235.644 197.4C234.284 198.68 232.67 199.68 230.804 200.4C228.964 201.12 226.95 201.48 224.764 201.48ZM224.724 195.96C225.977 195.96 227.124 195.747 228.164 195.32C229.23 194.893 230.164 194.28 230.964 193.48C231.764 192.68 232.377 191.733 232.804 190.64C233.257 189.547 233.484 188.333 233.484 187C233.484 185.667 233.257 184.453 232.804 183.36C232.377 182.267 231.764 181.32 230.964 180.52C230.19 179.72 229.27 179.107 228.204 178.68C227.137 178.253 225.977 178.04 224.724 178.04C223.47 178.04 222.31 178.253 221.244 178.68C220.204 179.107 219.284 179.72 218.484 180.52C217.684 181.32 217.057 182.267 216.604 183.36C216.177 184.453 215.964 185.667 215.964 187C215.964 188.307 216.177 189.52 216.604 190.64C217.057 191.733 217.67 192.68 218.444 193.48C219.244 194.28 220.177 194.893 221.244 195.32C222.31 195.747 223.47 195.96 224.724 195.96Z" fill="white"/>
<defs>
<clipPath id="clip0_123_22">
<rect width="40" height="40" fill="white" transform="translate(109 166)"/>
</clipPath>
</defs>
</svg>
