<svg width="140" height="142" viewBox="0 0 140 142" fill="none" xmlns="http://www.w3.org/2000/svg">
<g clip-path="url(#clip0_9_40)">
<path d="M44.6714 83.6255H39.4871V88.8474H44.6714V83.6255Z" fill="#223D5E"/>
<path d="M34.2508 83.6255H29.0664V88.8474H34.2508V83.6255Z" fill="#223D5E"/>
<path d="M24.3305 83.6255H19.1461V88.8474H24.3305V83.6255Z" fill="#223D5E"/>
<path d="M110.433 83.6255H105.249V88.8474H110.433V83.6255Z" fill="#223D5E"/>
<path d="M100.516 83.6255H95.3312V88.8474H100.516V83.6255Z" fill="#223D5E"/>
<path d="M120.854 83.6255H115.67V88.8474H120.854V83.6255Z" fill="#223D5E"/>
<path d="M44.6714 94.0528H39.4871V99.2747H44.6714V94.0528Z" fill="#223D5E"/>
<path d="M34.2508 94.0528H29.0664V99.2747H34.2508V94.0528Z" fill="#223D5E"/>
<path d="M24.3305 94.0528H19.1461V99.2747H24.3305V94.0528Z" fill="#223D5E"/>
<path d="M110.433 94.0528H105.249V99.2747H110.433V94.0528Z" fill="#223D5E"/>
<path d="M100.516 94.0528H95.3312V99.2747H100.516V94.0528Z" fill="#223D5E"/>
<path d="M120.854 94.0528H115.67V99.2747H120.854V94.0528Z" fill="#223D5E"/>
<path d="M44.6714 104.477H39.4871V109.699H44.6714V104.477Z" fill="#223D5E"/>
<path d="M34.2508 104.477H29.0664V109.699H34.2508V104.477Z" fill="#223D5E"/>
<path d="M24.3305 104.477H19.1461V109.699H24.3305V104.477Z" fill="#223D5E"/>
<path d="M110.433 104.477H105.249V109.699H110.433V104.477Z" fill="#223D5E"/>
<path d="M100.516 104.477H95.3312V109.699H100.516V104.477Z" fill="#223D5E"/>
<path d="M120.854 104.477H115.67V109.699H120.854V104.477Z" fill="#223D5E"/>
<path d="M60.451 66.712C60.451 68.9998 61.1246 71.2363 62.3865 73.1386C63.6484 75.0409 65.442 76.5235 67.5405 77.399C69.639 78.2746 71.9482 78.5037 74.1759 78.0573C76.4037 77.611 78.45 76.5093 80.0561 74.8915C81.6622 73.2737 82.756 71.2126 83.1991 68.9687C83.6423 66.7248 83.4148 64.3989 82.5456 62.2852C81.6764 60.1715 80.2044 58.3649 78.3158 57.0939C76.4272 55.8228 74.2068 55.1444 71.9354 55.1444C68.8907 55.148 65.9717 56.3679 63.8187 58.5365C61.6658 60.705 60.4547 63.6452 60.451 66.712ZM74.1557 66.712V60.0083C75.7454 60.5393 77.0954 61.623 77.9639 63.0653C78.8325 64.5076 79.1629 66.2143 78.8959 67.8796C78.6288 69.545 77.7819 71.0601 76.5068 72.1537C75.2316 73.2473 73.6116 73.8479 71.9368 73.8479C70.262 73.8479 68.642 73.2473 67.3668 72.1537C66.0917 71.0601 65.2447 69.545 64.9777 67.8796C64.7107 66.2143 65.0411 64.5076 65.9097 63.0653C66.7782 61.623 68.1282 60.5393 69.7178 60.0083V66.712C69.738 67.2912 69.9807 67.8398 70.3946 68.2424C70.8085 68.6449 71.3614 68.8699 71.9368 68.8699C72.5122 68.8699 73.0651 68.6449 73.479 68.2424C73.8929 67.8398 74.1356 67.2912 74.1557 66.712Z" fill="#223D5E"/>
<path d="M138.154 111.223H133.945V68.7704C133.945 68.4463 133.875 68.1262 133.739 67.8322C133.604 67.5383 133.406 67.2776 133.161 67.0683L122.74 58.1337C122.338 57.7917 121.829 57.604 121.303 57.604C120.777 57.604 120.268 57.7917 119.866 58.1337L110.113 66.4927H93.2771V53.6362C93.2771 53.2741 93.1898 52.9175 93.0226 52.597C92.8554 52.2765 92.6134 52.0017 92.3173 51.7964L75.274 39.9533V38.1383C75.8914 38.3067 76.5267 38.3991 77.1662 38.4138C79.463 38.4138 81.4427 37.4057 83.0724 36.5767C85.897 35.1363 87.3654 34.5248 89.7634 36.3454C90.0928 36.5948 90.4846 36.747 90.895 36.785C91.3054 36.8229 91.7181 36.745 92.0871 36.56C92.456 36.3751 92.7666 36.0904 92.984 35.7377C93.2014 35.3851 93.3171 34.9785 93.3181 34.5634V20.9081C93.3175 20.5619 93.2371 20.2206 93.0834 19.9109C92.9297 19.6012 92.7068 19.3317 92.4322 19.1234C87.7236 15.543 83.8818 17.5122 81.0736 18.9416C78.2654 20.3711 76.7806 20.988 74.388 19.1757C74.0588 18.9251 73.6665 18.7719 73.2555 18.7336C72.8445 18.6952 72.4311 18.7731 72.0616 18.9586C71.6922 19.1441 71.3815 19.4297 71.1645 19.7834C70.9475 20.1371 70.8328 20.5447 70.8333 20.9605V39.9644L53.79 51.8074C53.4945 52.0132 53.2528 52.2881 53.0857 52.6085C52.9185 52.9289 52.8309 53.2853 52.8302 53.6472V66.5258H35.992L26.2193 58.1337C25.818 57.7906 25.3088 57.6023 24.7824 57.6023C24.256 57.6023 23.7468 57.7906 23.3455 58.1337L12.9248 67.0683C12.6791 67.2776 12.4816 67.5383 12.3461 67.8322C12.2105 68.1262 12.1402 68.4463 12.14 68.7704V111.223H7.93181C7.34367 111.223 6.77962 111.459 6.36375 111.878C5.94787 112.297 5.71423 112.865 5.71423 113.457C5.71423 114.05 5.94787 114.618 6.36375 115.037C6.77962 115.455 7.34367 115.691 7.93181 115.691H138.154C138.742 115.691 139.306 115.455 139.722 115.037C140.138 114.618 140.371 114.05 140.371 113.457C140.371 112.865 140.138 112.297 139.722 111.878C139.306 111.459 138.742 111.223 138.154 111.223ZM75.263 24.5326C78.372 25.3148 81.0052 23.9818 83.0642 22.9325C85.5251 21.6821 86.9498 21.0458 88.8693 22.1062V30.9747C85.7603 30.1897 83.1271 31.5255 81.0572 32.5776C78.5962 33.8335 77.1662 34.4532 75.263 33.4039V24.5326ZM52.822 111.221H16.5779V69.8005L24.781 62.7718L33.7634 70.4835C34.0008 70.6899 34.2794 70.8424 34.5804 70.9308C34.8814 71.0191 35.1977 71.0413 35.508 70.9958H52.8193L52.822 111.221ZM77.6502 111.221H68.4408V91.5421C68.4408 90.312 68.9259 89.1323 69.7895 88.2625C70.653 87.3927 71.8242 86.904 73.0455 86.904C74.2667 86.904 75.4379 87.3927 76.3015 88.2625C77.165 89.1323 77.6502 90.312 77.6502 91.5421V111.221ZM88.8283 68.7291V111.221H82.088V91.5421C82.0468 89.1535 81.0758 86.8768 79.3843 85.2023C77.6927 83.5279 75.4158 82.5896 73.0441 82.5896C70.6724 82.5896 68.3955 83.5279 66.7039 85.2023C65.0124 86.8768 64.0414 89.1535 64.0001 91.5421V111.221H57.2599V54.8094L73.0427 43.845L88.8255 54.8094L88.8283 68.7291ZM129.508 111.221H93.2771V70.9627H110.474C110.8 71.0282 111.137 71.0178 111.458 70.9324C111.78 70.847 112.078 70.6887 112.33 70.4698L121.313 62.758L129.516 69.7867L129.508 111.221Z" fill="#223D5E"/>
</g>
<defs>
<clipPath id="clip0_9_40">
<rect width="140" height="141.014" fill="white"/>
</clipPath>
</defs>
</svg>
