<svg width="30" height="30" viewBox="0 0 30 30" fill="none" xmlns="http://www.w3.org/2000/svg">
<path d="M15 26.925C14.6292 26.9259 14.2619 26.8535 13.9192 26.7119C13.5765 26.5703 13.2651 26.3624 13.0031 26.1L3.34687 16.4437C2.58406 15.6726 1.98233 14.7575 1.57673 13.7515C1.17112 12.7455 0.96976 11.6689 0.984369 10.5844C0.991719 9.59047 1.19508 8.60778 1.58281 7.6926C1.97053 6.77741 2.535 5.94771 3.24388 5.25102C3.95276 4.55433 4.79213 4.00434 5.7139 3.63255C6.63567 3.26076 7.62174 3.07448 8.61562 3.08437C9.62729 3.07418 10.6307 3.26725 11.5663 3.65214C12.502 4.03703 13.3508 4.60589 14.0625 5.32499L15 6.26249L15.7687 5.49374C17.0962 4.13115 18.8724 3.29579 20.7685 3.14237C22.6646 2.98896 24.552 3.5279 26.0812 4.65937C26.9517 5.32973 27.6694 6.17785 28.1865 7.14727C28.7036 8.11668 29.0082 9.18514 29.08 10.2815C29.1519 11.3778 28.9893 12.4769 28.6032 13.5055C28.217 14.5341 27.6162 15.4686 26.8406 16.2469L16.9969 26.1C16.7348 26.3624 16.4235 26.5703 16.0808 26.7119C15.7381 26.8535 15.3708 26.9259 15 26.925ZM8.57812 4.94999C7.08798 4.94847 5.65571 5.52676 4.58437 6.56249C4.03818 7.088 3.60383 7.71848 3.3074 8.41605C3.01097 9.11363 2.85857 9.86392 2.85937 10.6219C2.85115 11.4556 3.00851 12.2827 3.32232 13.0551C3.63614 13.8276 4.10016 14.5301 4.68749 15.1219L14.3437 24.7781C14.4309 24.866 14.5346 24.9357 14.6488 24.9833C14.7631 25.0309 14.8856 25.0554 15.0094 25.0554C15.1331 25.0554 15.2557 25.0309 15.3699 24.9833C15.4842 24.9357 15.5878 24.866 15.675 24.7781L25.5281 14.9156C26.1065 14.325 26.5533 13.6187 26.8393 12.8432C27.1253 12.0676 27.244 11.2403 27.1875 10.4156C27.1374 9.58248 26.9079 8.76999 26.5148 8.03376C26.1216 7.29753 25.5739 6.65495 24.9094 6.14999C23.7432 5.29021 22.3043 4.88367 20.8607 5.00613C19.417 5.12859 18.0671 5.77169 17.0625 6.81562L15.6656 8.24999C15.5785 8.33786 15.4748 8.40761 15.3605 8.4552C15.2463 8.5028 15.1238 8.5273 15 8.5273C14.8762 8.5273 14.7537 8.5028 14.6395 8.4552C14.5252 8.40761 14.4215 8.33786 14.3344 8.24999L12.7406 6.65624C11.6429 5.56806 10.1613 4.95521 8.61562 4.94999H8.57812Z" fill="#193163"/>
</svg>
