<svg width="30" height="30" viewBox="0 0 30 30" fill="none" xmlns="http://www.w3.org/2000/svg">
<path d="M15 26.925C14.6292 26.9259 14.2619 26.8535 13.9192 26.7119C13.5765 26.5703 13.2652 26.3624 13.0031 26.1L3.34688 16.4437C2.58408 15.6726 1.98234 14.7575 1.57674 13.7515C1.17114 12.7455 0.969775 11.6689 0.984384 10.5844C0.991734 9.59047 1.1951 8.60778 1.58282 7.6926C1.97055 6.77741 2.53502 5.94771 3.2439 5.25102C3.95278 4.55433 4.79215 4.00434 5.71392 3.63255C6.63569 3.26076 7.62176 3.07448 8.61563 3.08437C9.6273 3.07418 10.6307 3.26725 11.5664 3.65214C12.502 4.03703 13.3508 4.60589 14.0625 5.32499L15 6.26249L15.7688 5.49374C17.0962 4.13115 18.8724 3.29579 20.7685 3.14237C22.6646 2.98896 24.552 3.5279 26.0813 4.65937C26.9517 5.32973 27.6694 6.17785 28.1865 7.14727C28.7036 8.11668 29.0082 9.18514 29.08 10.2815C29.1519 11.3778 28.9893 12.4769 28.6032 13.5055C28.217 14.5341 27.6162 15.4686 26.8406 16.2469L16.9969 26.1C16.7349 26.3624 16.4235 26.5703 16.0808 26.7119C15.7381 26.8535 15.3708 26.9259 15 26.925ZM8.57813 4.94999C7.088 4.94847 5.65572 5.52676 4.58438 6.56249C4.03819 7.088 3.60384 7.71848 3.30741 8.41605C3.01098 9.11363 2.85859 9.86392 2.85938 10.6219C2.85117 11.4556 3.00853 12.2827 3.32234 13.0551C3.63615 13.8276 4.10017 14.5301 4.68751 15.1219L14.3438 24.7781C14.4309 24.866 14.5346 24.9357 14.6488 24.9833C14.7631 25.0309 14.8856 25.0554 15.0094 25.0554C15.1331 25.0554 15.2557 25.0309 15.3699 24.9833C15.4842 24.9357 15.5879 24.866 15.675 24.7781L25.5281 14.9156C26.1065 14.325 26.5534 13.6187 26.8393 12.8432C27.1253 12.0676 27.244 11.2403 27.1875 10.4156C27.1374 9.58248 26.908 8.76999 26.5148 8.03376C26.1216 7.29753 25.574 6.65495 24.9094 6.14999C23.7433 5.29021 22.3043 4.88367 20.8607 5.00613C19.417 5.12859 18.0672 5.77169 17.0625 6.81562L15.6656 8.24999C15.5785 8.33786 15.4748 8.40761 15.3605 8.4552C15.2463 8.5028 15.1238 8.5273 15 8.5273C14.8762 8.5273 14.7537 8.5028 14.6395 8.4552C14.5252 8.40761 14.4215 8.33786 14.3344 8.24999L12.7406 6.65624C11.6429 5.56806 10.1613 4.95521 8.61563 4.94999H8.57813Z" fill="#193163"/>
</svg>
