<svg width="28" height="28" viewBox="0 0 28 28" fill="none" xmlns="http://www.w3.org/2000/svg">
<g clip-path="url(#clip0_86_12)">
<path d="M24.5 28H16.3333V20.4166H11.6667V28H3.5V15.75C3.5 15.428 3.76075 15.1666 4.08333 15.1666C4.40592 15.1666 4.66667 15.428 4.66667 15.75V26.8333H10.5V19.25H17.5V26.8333H23.3333V16.3333C23.3333 16.0113 23.5941 15.75 23.9167 15.75C24.2393 15.75 24.5 16.0113 24.5 16.3333V28Z" fill="#193163"/>
<path d="M27.4167 15.75C27.2714 15.75 27.1268 15.6963 27.0136 15.5884L14 3.14067L0.98642 15.5884C0.75367 15.8107 0.38442 15.8031 0.161587 15.5703C-0.0612466 15.3376 -0.0524966 14.9683 0.17967 14.7455L14 1.526L27.8198 14.7449C28.0519 14.9678 28.0607 15.337 27.8378 15.5698C27.7235 15.6893 27.5707 15.75 27.4167 15.75Z" fill="#193163"/>
<path d="M22.75 8.75C22.4274 8.75 22.1667 8.48867 22.1667 8.16667V4.66667H18.6667C18.3441 4.66667 18.0833 4.40533 18.0833 4.08333C18.0833 3.76133 18.3441 3.5 18.6667 3.5H23.3333V8.16667C23.3333 8.48867 23.0726 8.75 22.75 8.75Z" fill="#193163"/>
</g>
<defs>
<clipPath id="clip0_86_12">
<rect width="28" height="28" fill="white"/>
</clipPath>
</defs>
</svg>
