<svg width="33" height="33" viewBox="0 0 33 33" fill="none" xmlns="http://www.w3.org/2000/svg">
<path d="M28.8943 27.3732L21.5918 20.0643C22.9324 18.3885 23.7381 16.2551 23.7381 13.9348C23.7381 8.51426 19.3488 4.125 13.9412 4.125C8.52715 4.125 4.14434 8.5207 4.14434 13.9348C4.14434 19.3488 8.53359 23.7445 13.9412 23.7445C16.2744 23.7445 18.4143 22.926 20.0965 21.566L27.3926 28.875L28.8943 27.3732ZM7.74082 20.148C6.08438 18.4916 5.17559 16.2873 5.17559 13.9412C5.17559 11.5951 6.09082 9.39082 7.74082 7.73438C9.39082 6.07793 11.6016 5.15625 13.9412 5.15625C16.2809 5.15625 18.4852 6.07148 20.1416 7.72793C21.798 9.38438 22.7068 11.5887 22.7068 13.9348C22.7068 16.2809 21.7916 18.4852 20.1416 20.1416C18.4852 21.798 16.2809 22.7133 13.9412 22.7133C11.6016 22.7197 9.39727 21.8045 7.74082 20.148Z" fill="#193163"/>
</svg>
