<svg width="50" height="50" viewBox="0 0 50 50" fill="none" xmlns="http://www.w3.org/2000/svg">
<rect width="50" height="50" fill="#092444"/>
<g clip-path="url(#clip0_124_24)">
<mask id="mask0_124_24" style="mask-type:luminance" maskUnits="userSpaceOnUse" x="0" y="6" width="50" height="39">
<path d="M50 6H0V44.011H50V6Z" fill="white"/>
</mask>
<g mask="url(#mask0_124_24)">
<path d="M0 17.9337L24.3094 6L49.1713 17.8232L24.4199 31.3039L0 17.9337Z" fill="white"/>
<path d="M48.5084 18.6519C48.5084 18.2553 48.1868 17.9337 47.7901 17.9337C47.3934 17.9337 47.0718 18.2553 47.0718 18.6519V27.0497C47.0718 27.4464 47.3934 27.768 47.7901 27.768C48.1868 27.768 48.5084 27.4464 48.5084 27.0497V18.6519Z" fill="white"/>
<path d="M47.8176 31.6906C49.0229 31.6906 49.9999 30.7135 49.9999 29.5083C49.9999 28.303 49.0229 27.3259 47.8176 27.3259C46.6123 27.3259 45.6353 28.303 45.6353 29.5083C45.6353 30.7135 46.6123 31.6906 47.8176 31.6906Z" fill="white"/>
<path d="M46.5194 33.5138C46.9021 33.8007 47.3671 33.9558 47.8454 33.9558C48.3234 33.9558 48.7887 33.8007 49.1714 33.5138C49.2451 37.0136 49.3187 40.5126 49.3924 44.011H46.0774C46.2247 40.512 46.3721 37.0129 46.5194 33.5138Z" fill="white"/>
<path d="M10.8286 26.5525L24.1557 33.8508L37.6795 26.5525V34.2873C37.0739 35.0354 32.3479 40.6707 24.3093 40.696C16.2043 40.7217 11.4253 35.0243 10.8286 34.2873V26.5525Z" fill="white"/>
<path d="M26.5441 25.5341L21.9241 26.1131L21.7591 26.88L22.6681 27.045C23.2594 27.1871 23.377 27.3994 23.2487 27.9907L21.7591 34.9833C21.3695 36.7907 21.973 37.6417 23.3892 37.6417C24.4892 37.6417 25.7634 37.1345 26.3424 36.4363L26.5197 35.5975C26.1178 35.952 25.5266 36.094 25.137 36.094C24.5824 36.094 24.3823 35.7044 24.5228 35.0185L26.5441 25.5341ZM26.6831 21.325C26.6831 21.8598 26.4707 22.3728 26.0925 22.751C25.7143 23.1292 25.2013 23.3417 24.6665 23.3417C24.1316 23.3417 23.6187 23.1292 23.2405 22.751C22.8623 22.3728 22.6498 21.8598 22.6498 21.325C22.6498 20.7901 22.8623 20.2772 23.2405 19.899C23.6187 19.5208 24.1316 19.3083 24.6665 19.3083C25.2013 19.3083 25.7143 19.5208 26.0925 19.899C26.4707 20.2772 26.6831 20.7901 26.6831 21.325Z" fill="#092444"/>
</g>
</g>
<defs>
<clipPath id="clip0_124_24">
<rect width="50" height="38.3333" fill="white" transform="translate(0 6)"/>
</clipPath>
</defs>
</svg>
