<svg width="25" height="25" viewBox="0 0 25 25" fill="none" xmlns="http://www.w3.org/2000/svg">
<rect width="25" height="25" fill="#092444"/>
<g clip-path="url(#clip0_124_24)">
<mask id="mask0_124_24" style="mask-type:luminance" maskUnits="userSpaceOnUse" x="0" y="3" width="25" height="20">
<path d="M25 3H0V22.0055H25V3Z" fill="white"/>
</mask>
<g mask="url(#mask0_124_24)">
<path d="M0 8.96685L12.1547 3L24.5857 8.9116L12.2099 15.6519L0 8.96685Z" fill="white"/>
<path d="M24.2542 9.32591C24.2542 9.12758 24.0934 8.9668 23.8951 8.9668C23.6967 8.9668 23.5359 9.12758 23.5359 9.32591V13.5248C23.5359 13.7231 23.6967 13.8839 23.8951 13.8839C24.0934 13.8839 24.2542 13.7231 24.2542 13.5248V9.32591Z" fill="white"/>
<path d="M23.9088 15.8453C24.5115 15.8453 25 15.3568 25 14.7541C25 14.1515 24.5115 13.663 23.9088 13.663C23.3061 13.663 22.8176 14.1515 22.8176 14.7541C22.8176 15.3568 23.3061 15.8453 23.9088 15.8453Z" fill="white"/>
<path d="M23.2596 16.757C23.4509 16.9004 23.6834 16.978 23.9226 16.978C24.1616 16.978 24.3942 16.9004 24.5856 16.757C24.6224 18.5069 24.6592 20.2564 24.6961 22.0055H23.0386C23.1122 20.256 23.1859 18.5065 23.2596 16.757Z" fill="white"/>
<path d="M5.41431 13.2762L12.0778 16.9254L18.8398 13.2762V17.1436C18.5369 17.5177 16.174 20.3353 12.1546 20.348C8.10216 20.3608 5.71266 17.5121 5.41431 17.1436V13.2762Z" fill="white"/>
<path d="M13.272 12.767L10.962 13.0565L10.8795 13.44L11.3341 13.5225C11.6297 13.5935 11.6885 13.6997 11.6243 13.9954L10.8795 17.4917C10.6847 18.3954 10.9865 18.8208 11.6946 18.8208C12.2446 18.8208 12.8817 18.5672 13.1712 18.2181L13.2598 17.7988C13.0589 17.976 12.7633 18.047 12.5685 18.047C12.2912 18.047 12.1911 17.8522 12.2614 17.5092L13.272 12.767ZM13.3416 10.6625C13.3416 10.9299 13.2353 11.1864 13.0462 11.3755C12.8571 11.5646 12.6006 11.6708 12.3332 11.6708C12.0658 11.6708 11.8093 11.5646 11.6202 11.3755C11.4311 11.1864 11.3249 10.9299 11.3249 10.6625C11.3249 10.3951 11.4311 10.1386 11.6202 9.94951C11.8093 9.76041 12.0658 9.65417 12.3332 9.65417C12.6006 9.65417 12.8571 9.76041 13.0462 9.94951C13.2353 10.1386 13.3416 10.3951 13.3416 10.6625Z" fill="#092444"/>
</g>
</g>
<defs>
<clipPath id="clip0_124_24">
<rect width="25" height="19.1667" fill="white" transform="translate(0 3)"/>
</clipPath>
</defs>
</svg>
